<svg xmlns="http://www.w3.org/2000/svg" version="1.1" xmlns:xlink="http://www.w3.org/1999/xlink" xmlns:svgjs="http://svgjs.com/svgjs" width="1440" height="560" preserveAspectRatio="none" viewBox="0 0 1440 560">
    <g mask="url(&quot;#SvgjsMask1127&quot;)" fill="none">
        <rect width="1440" height="560" x="0" y="0" fill="#0e2a47"></rect>
        <path d="M352.37099430885013 47.29525218702534L252.40578167959757 91.68852675163846 328.7670062838431 149.2308368229768z" fill="rgba(28, 83, 142, 0.4)" class="triangle-float3"></path>
        <path d="M642.64 238.62 a112.67 112.67 0 1 0 225.34 0 a112.67 112.67 0 1 0 -225.34 0z" fill="rgba(28, 83, 142, 0.4)" class="triangle-float1"></path>
        <path d="M82.473,351.104C115.912,353.652,149.428,338.872,167.018,310.319C185.434,280.425,187.54,241.311,168.138,212.048C150.268,185.095,114.812,182.633,82.473,182.804C50.551,182.972,13.919,185.071,-1.641,212.944C-16.988,240.436,1.272,272.042,17.645,298.935C33.105,324.328,52.83,348.845,82.473,351.104" fill="rgba(28, 83, 142, 0.4)" class="triangle-float2"></path>
        <path d="M950.919,281.517C965.6,281.503,980.877,277.139,988.314,264.481C995.83,251.688,992.797,235.845,985.259,223.065C977.858,210.517,965.485,200.849,950.919,201.078C936.683,201.301,925.642,211.857,918.397,224.114C910.991,236.645,906.229,251.885,913.404,264.55C920.655,277.349,936.209,281.531,950.919,281.517" fill="rgba(28, 83, 142, 0.4)" class="triangle-float1"></path>
        <path d="M207.303,242.467C244.053,240.974,274.238,215.141,290.864,182.333C305.925,152.613,301.041,118.434,284.943,89.263C268.178,58.884,241.888,33.717,207.303,30.914C167.461,27.685,125.027,40.441,104.307,74.624C82.971,109.823,89.565,154.553,111.093,189.635C131.603,223.058,168.121,244.059,207.303,242.467" fill="rgba(28, 83, 142, 0.4)" class="triangle-float2"></path>
        <path d="M424.3927197822863 340.9869675216683L263.34985428184996 309.68340554126945 232.0462923014511 470.72627104170584 393.08915780188744 502.02983302210464z" fill="rgba(28, 83, 142, 0.4)" class="triangle-float2"></path>
        <path d="M445.991,637.551C481.14,636.816,519.263,630.434,536.979,600.067C554.793,569.53,541.431,533.212,525.175,501.818C506.977,466.675,485.478,427,445.991,424.356C403.395,421.503,366.442,452.328,346.027,489.821C326.514,525.657,325.301,570.219,348.168,604.013C368.873,634.612,409.053,638.323,445.991,637.551" fill="rgba(28, 83, 142, 0.4)" class="triangle-float3"></path>
        <path d="M924.65 141.51 a138.15 138.15 0 1 0 276.3 0 a138.15 138.15 0 1 0 -276.3 0z" fill="rgba(28, 83, 142, 0.4)" class="triangle-float2"></path>
        <path d="M262.337,690.018C299.842,690.836,325.152,655.945,343.234,623.076C360.486,591.717,370.214,555.358,353.96,523.471C336.27,488.768,301.262,462.923,262.337,464.373C225.279,465.753,197.949,496.491,181.821,529.884C167.844,558.824,172.895,590.96,187.332,619.674C203.835,652.497,225.608,689.217,262.337,690.018" fill="rgba(28, 83, 142, 0.4)" class="triangle-float1"></path>
        <path d="M27.15,483.241C53.974,483.564,83.614,477.804,96.405,454.224C108.833,431.313,96.031,404.512,81.647,382.775C69.065,363.761,49.885,351.283,27.15,349.565C0.509,347.551,-29.287,350.842,-43.765,373.296C-59.141,397.144,-54.658,428.747,-39.278,452.592C-25.111,474.556,1.015,482.927,27.15,483.241" fill="rgba(28, 83, 142, 0.4)" class="triangle-float2"></path>
        <path d="M134.74,401.853C191.279,399.548,232.955,354.29,259.552,304.344C284.311,257.849,292.406,202.068,265.124,157.007C238.658,113.293,185.76,101.083,134.74,98.193C76.127,94.873,8.409,91.685,-24.007,140.631C-58.589,192.848,-41.567,261.774,-9.041,315.296C22.097,366.534,74.832,404.296,134.74,401.853" fill="rgba(28, 83, 142, 0.4)" class="triangle-float3"></path>
        <path d="M1171.1395501046 498.80047743989144L1169.5927181281368 410.1825328590844 1037.4392172451578 456.8117531141827z" fill="rgba(28, 83, 142, 0.4)" class="triangle-float3"></path>
        <path d="M1139.91 267.64 a174.16 174.16 0 1 0 348.32 0 a174.16 174.16 0 1 0 -348.32 0z" fill="rgba(28, 83, 142, 0.4)" class="triangle-float2"></path>
        <path d="M742.2221659354966 160.5504869404265L659.9205402334077 17.68563002733063 585.6895944469288 141.22667005524113z" fill="rgba(28, 83, 142, 0.4)" class="triangle-float2"></path>
    </g>
    <defs>
        <mask id="SvgjsMask1127">
            <rect width="1440" height="560" fill="#ffffff"></rect>
        </mask>
        <style>
            @keyframes float1 {
                0%{transform: translate(0, 0)}
                50%{transform: translate(-10px, 0)}
                100%{transform: translate(0, 0)}
            }

            .triangle-float1 {
                animation: float1 5s infinite;
            }

            @keyframes float2 {
                0%{transform: translate(0, 0)}
                50%{transform: translate(-5px, -5px)}
                100%{transform: translate(0, 0)}
            }

            .triangle-float2 {
                animation: float2 4s infinite;
            }

            @keyframes float3 {
                0%{transform: translate(0, 0)}
                50%{transform: translate(0, -10px)}
                100%{transform: translate(0, 0)}
            }

            .triangle-float3 {
                animation: float3 6s infinite;
            }
        </style>
    </defs>
</svg>