<svg xmlns="http://www.w3.org/2000/svg" version="1.1" xmlns:xlink="http://www.w3.org/1999/xlink" xmlns:svgjs="http://svgjs.com/svgjs" width="1440" height="560" preserveAspectRatio="none" viewBox="0 0 1440 560">
    <g mask="url(&quot;#SvgjsMask1139&quot;)" fill="none">
        <rect width="1440" height="560" x="0" y="0" fill="url(#SvgjsLinearGradient1140)"></rect>
        <path d="M0 0L299.05 0L0 24.31z" fill="rgba(255, 255, 255, .1)"></path>
        <path d="M0 24.31L299.05 0L756.51 0L0 193.87z" fill="rgba(255, 255, 255, .075)"></path>
        <path d="M0 193.87L756.51 0L871.25 0L0 382.46000000000004z" fill="rgba(255, 255, 255, .05)"></path>
        <path d="M0 382.46000000000004L871.25 0L1033.96 0L0 459.03000000000003z" fill="rgba(255, 255, 255, .025)"></path>
        <path d="M1440 560L1042 560L1440 450.1z" fill="rgba(0, 0, 0, .1)"></path>
        <path d="M1440 450.1L1042 560L679.77 560L1440 331.56z" fill="rgba(0, 0, 0, .075)"></path>
        <path d="M1440 331.56L679.77 560L432.39 560L1440 268.98z" fill="rgba(0, 0, 0, .05)"></path>
        <path d="M1440 268.98L432.39 560L259.11 560L1440 96.66000000000003z" fill="rgba(0, 0, 0, .025)"></path>
    </g>
    <defs>
        <mask id="SvgjsMask1139">
            <rect width="1440" height="560" fill="#ffffff"></rect>
        </mask>
        <linearGradient x1="84.72%" y1="139.29%" x2="15.28%" y2="-39.29%" gradientUnits="userSpaceOnUse" id="SvgjsLinearGradient1140">
            <stop stop-color="#0e2a47" offset="0"></stop>
            <stop stop-color="rgba(20, 20, 31, 1)" offset="1"></stop>
        </linearGradient>
    </defs>
</svg>